<?xml version="1.0" encoding="UTF-8"?>
<svg id="Calque_1" data-name="Calque 1" xmlns="http://www.w3.org/2000/svg" viewBox="0 0 507.21 506.23" fill="#000000">
  <path d="m.17,271.45h.02c0,6.79.26,13.59-.06,20.37-.6,12.68.96,25.08,4.48,37.19,4.25,14.67,9.79,28.89,17.83,41.91,7.85,12.72,15.77,25.47,24.72,37.41,6.29,8.39,14.12,15.68,21.69,23.02,8.8,8.54,17.92,16.68,28.72,22.9,7.34,4.23,13.67,10.18,20.79,14.86,7.16,4.71,14.58,9.08,22.15,13.08,9.87,5.2,19.95,10.01,30.04,14.77,6.88,3.25,13.9,6.18,20.92,9.13.84.35,2.02-.09,3.05-.17-.52-.68-.94-1.49-1.57-2.03-7.25-6.15-14.79-11.98-21.73-18.45-10.51-9.79-18.17-21.89-26.06-33.77-6.51-9.81-11.01-20.5-14.77-31.6-2.66-7.84-6.06-15.43-8.5-23.33-2.12-6.84-3.85-13.88-4.86-20.97-2.14-14.92-4.16-29.9-5.36-44.92-.93-11.71-.55-23.53-.7-35.3-.01-1.13.4-2.27.61-3.4.92.8,1.84,1.59,2.75,2.4.14.13.2.34.32.51,10.38,14.59,20.58,29.33,31.23,43.72,5.38,7.27,11.56,13.96,17.47,20.84,5.1,5.95,10.31,11.8,15.52,17.66.63.71,1.55,1.16,2.34,1.73-.17-1.13-.04-2.42-.55-3.35-2.58-4.66-5.76-9.03-7.92-13.87-4.57-10.27-8.91-20.67-12.8-31.22-2.01-5.44-2.65-11.37-4.26-16.98-3.78-13.19-3.07-26.68-2.54-40.08.26-6.48,1.76-13.02,3.55-19.28,1.61-5.64,4.4-10.94,6.63-16.41,4.05-9.92,8.99-19.28,16.73-26.9,6.21-6.11,12.51-12.13,18.58-18.38,2.57-2.65,4.43-1.8,6.47.39,3.93,4.21,7.8,8.49,11.86,12.57,6.72,6.75,13.56,13.38,20.37,20.04,4.06,3.97,8.3,7.76,12.18,11.9,3.06,3.25,3.58,3.53,6.81.38,5.27-5.15,10.44-10.39,15.68-15.57,9.78-9.67,19.52-19.39,29.45-28.9.99-.95,3.78-1.4,4.77-.71,3.81,2.66,7.54,5.6,10.75,8.96,9.82,10.28,19.04,21.13,25.16,34.08,3.23,6.83,5.52,14.13,7.76,21.37,1.19,3.83,1.78,7.96,1.95,11.99.46,11.01,1.2,22.08.58,33.06-.42,7.48-2.59,14.94-4.6,22.23-2.46,8.93-4.99,17.92-8.55,26.44-3.42,8.18-8.24,15.77-12.36,23.66-.45.86-.29,2.02-.41,3.05.89-.44,2-.68,2.64-1.36,4.15-4.43,8.24-8.93,12.27-13.47,5.2-5.86,10.65-11.55,15.43-17.75,7.2-9.35,13.93-19.07,20.8-28.67,5.18-7.23,10.25-14.55,15.43-21.78.64-.89,1.65-1.51,2.48-2.25.24.99.73,2,.7,2.98-.47,13.31-.68,26.65-1.63,39.93-.86,11.97-1.66,24.06-4.07,35.77-3.44,16.68-6.81,33.55-14.07,49.14-6.01,12.9-11.99,25.91-19.29,38.09-5.3,8.84-12.36,16.73-19.31,24.43-6.33,7.02-13.58,13.22-20.41,19.79-.65.63-1.22,1.35-1.83,2.03,1.04.06,2.21.46,3.09.11,7.45-2.96,15.02-5.7,22.21-9.2,11.73-5.7,23.25-11.86,34.77-17.97,4.36-2.31,8.62-4.87,12.73-7.62,6.52-4.36,12.93-8.88,19.26-13.49,7.12-5.18,14.19-10.43,21.1-15.88,2.95-2.32,5.58-5.1,8.1-7.9,7.71-8.53,15.28-17.19,22.96-25.75,2.16-2.42,4.69-4.52,6.71-7.04,7.41-9.22,13.7-19.17,18.83-29.85,6.82-14.17,14.03-28.16,17.36-43.74,2.16-10.1,4.42-20.11,4.34-30.55-.15-19.67,0-39.35.01-59.02,0-.9.35-2.09-.1-2.63-.72-.86-2.22-2.01-2.93-1.75-2.08.74-4.04,1.98-5.86,3.27-5.18,3.69-10.22,7.6-15.42,11.27-9.8,6.9-19.63,13.75-29.59,20.4-1.03.69-3.64.5-4.54-.33-6.99-6.51-13.83-13.19-20.55-19.99-8.38-8.48-16.57-17.14-24.87-25.69-9.85-10.14-19.96-20.04-29.51-30.46-3.85-4.19-7.2-9.15-9.57-14.31-4.31-9.39-8.21-19.03-11.36-28.86-2.92-9.11-5.13-18.52-6.73-27.96-1.22-7.21-1.2-14.67-1.37-22.03-.24-10.7-2.72-20.75-8.53-29.72-8.67-13.4-19.76-24.81-30.89-36.14-5.58-5.68-11.49-11.04-17.36-16.43-2.99-2.75-6.05-5.48-9.36-7.82C269.68.99,259.57-.26,248.97.04c-7.91.22-15.11,2.39-21.32,6.99-4.05,3-7.17,7.23-10.9,10.7-4.87,4.53-10.26,8.53-14.84,13.32-8.69,9.1-17.34,18.29-25.3,28.02-10.28,12.57-15.65,27.01-14.71,43.64.35,6.3-.1,12.82-1.38,18.99-2.17,10.45-4.87,20.84-8.11,31.01-4.23,13.29-10.82,25.54-19.4,36.54-4.55,5.83-9.93,11-15.03,16.38-5.87,6.19-11.81,12.31-17.78,18.4-5.21,5.31-10.52,10.51-15.77,15.79-8.72,8.76-17.36,17.59-26.21,26.22-.85.83-3.24,1.04-4.34.46-3.9-2.08-7.62-4.53-11.28-7.03-12.68-8.67-25.29-17.45-37.97-26.12-.99-.67-2.29-.89-3.44-1.32-.35,1.16-.98,2.32-.99,3.48-.07,11.98-.05,23.97-.05,35.95Zm324.07,16.22c-.24-2.27-.34-4.57-.76-6.81-1.43-7.71-2.94-15.4-4.52-23.07-.15-.75-.94-1.36-1.43-2.04-.69.63-1.69,1.14-2,1.92-.44,1.13-.14,2.55-.58,3.69-3.95,10.25-7.34,20.79-12.18,30.61-4.62,9.37-10.44,18.22-16.36,26.87-4.46,6.52-9.78,12.48-14.98,18.46-3.01,3.47-7.04,4.93-11.78,4.7-5.08-.24-10.22.33-15.26-.19-2.84-.3-6.12-1.44-8.16-3.33-9.56-8.82-17.97-18.65-24.02-30.31-5.79-11.16-11.9-22.17-17.37-33.5-2.65-5.49-4.09-11.55-6.2-17.3-.27-.73-1.32-1.75-1.87-1.67-.69.1-1.65,1.11-1.8,1.86-1.3,6.57-3.09,13.12-3.47,19.76-.43,7.51-.2,15.19.93,22.62,1.14,7.5,3.47,14.87,5.77,22.14,2.36,7.48,4.68,15.07,8.12,22.07,5.07,10.32,11.03,20.21,16.8,30.17,1.97,3.41,1.56,6.17-.44,9.4-4.62,7.47-9.02,15.09-13.24,22.79-.7,1.27-.57,3.58.12,4.92,3.12,6.04,6.53,11.93,9.95,17.81,2.49,4.29,5.3,8.41,7.72,12.73,2.02,3.61,3.48,7.53,5.54,11.11,4.06,7.04,8.51,13.85,12.52,20.9,5.08,8.93,9.86,18.04,14.9,27,.27.49,2.3.71,2.62.32,1.58-1.9,3.02-3.96,4.21-6.12,3.3-6.03,6.45-12.15,9.66-18.23,3.26-6.16,6.52-12.31,9.77-18.47.69-1.31,1.28-2.69,2.08-3.94,2.01-3.16,4.22-6.19,6.15-9.39,4.85-8.07,9.6-16.19,14.36-24.31,1.86-3.17,3.78-6.31,5.44-9.58,1.75-3.45-1.17-5.48-2.67-8.02-3.92-6.63-7.81-13.3-11.22-20.2-.89-1.8-.69-4.84.23-6.71,2.95-6,6.43-11.75,9.79-17.54,1.12-1.94,2.72-3.63,3.71-5.62,2.91-5.83,5.79-11.68,8.38-17.66,6.6-15.25,10.95-31.07,11.51-47.83Z"/>
</svg>