<?xml version="1.0" encoding="UTF-8"?>
<svg id="Calque_1" data-name="Calque 1" xmlns="http://www.w3.org/2000/svg" viewBox="0 0 549 579" fill="#000000">
  <path d="m189.26,216.79c33.53,4.69,66.92,9.37,100.9,14.12-1.06,3.93-1.91,7.32-2.91,10.67-.95,3.23-1.97,6.44-3.11,9.61-2.33,6.5-8.77,14.29-17.36,14.27-8.89-.03-17.78.02-26.67.06-4.37.02-5.31.96-5.32,5.23-.01,3.6.12,7.2-.03,10.79-.11,2.62,1.06,3.95,3.51,4.28,2.37.32,4.74.56,7.12.8,12.36,1.28,24.71,2.77,37.1,3.75,12.5.99,25.06,1.29,37.56,2.31,3.08.25,6.24,1.74,8.96,3.35,1.33.78,1.95,3.07,2.5,4.8,1.71,5.38,3.41,10.77,4.78,16.24,1.9,7.6,3.54,15.27,5.21,22.92.72,3.3,1.14,6.67,1.89,9.96,1.49,6.56,3.21,13.06,4.65,19.62,1.19,5.43,2.02,10.94,3.19,16.37,1.42,6.57,3.09,13.08,4.57,19.63,1.49,6.58,2.88,13.19,4.31,19.78.69,3.2,1.36,6.4,2.06,9.59,2.58,11.82,5.17,23.65,7.93,36.21-14.69,13.15-29.47,26.33-44.19,39.58-14.74,13.25-28.36,27.74-44.09,40.3-3.3-3.22-6.23-6.16-9.26-9-4.35-4.08-8.83-8.02-13.15-12.12-8.39-7.96-16.65-16.05-25.06-23.98-9.12-8.6-18.38-17.06-27.53-25.62-2.98-2.78-6.01-5.55-8.65-8.64-.98-1.15-1.56-3.35-1.2-4.8,2.4-9.84,4.92-19.66,7.78-29.38,1.89-6.44,4.65-12.62,6.59-19.04,2.74-9.09,5.02-18.32,7.64-27.46,1.49-5.22,3.4-10.32,4.82-15.56.42-1.55.39-3.74-.42-5-4.11-6.44-8.59-12.64-12.85-18.98-4.58-6.81-8.98-13.74-13.64-20.5-5.36-7.78-10.96-15.38-16.35-23.14-4.19-6.04-8.21-12.2-12.33-18.29-1.39-2.05-3.01-3.96-4.21-6.12-.53-.96-.68-2.54-.28-3.54,2.19-5.42,4.75-10.68,6.9-16.11,1.78-4.5,3.05-9.21,4.77-13.74,1.33-3.5,3.09-6.84,4.53-10.31,2.81-6.77,5.53-13.58,8.3-20.37.26-.64.54-1.27,1.08-2.53Z"/>
  <path d="m452.36,358.73c-2.59-2.78-5.19-5.82-8.05-8.58-9.39-9.03-20.85-12.63-33.48-10.55-6.76,1.11-13.36,3.98-18.99,8.32-3.99,3.08-7.86,6.32-11.85,9.4-.74.57-1.81.73-3.22,1.28v-28.48c3.12-2.18,6.7-4.64,10.23-7.17,6.25-4.46,12.23-9.23,16.6-15.69,2.66-3.93,5.41-7.81,7.92-11.83.92-1.47,1.5-3.24,1.87-4.94.99-4.54,2.48-9.12,2.52-13.7.23-26.76.26-53.53-.04-80.3-.06-4.98,1.49-8.17,5.31-11.04,4.85-3.64,9.76-7.34,13.9-11.72,6.81-7.2,13.39-14.7,19.38-22.59,5.43-7.15,10.12-14.89,14.8-22.57,2.62-4.3,4.56-9.01,6.78-13.55,1.82-3.74,3.82-7.41,5.33-11.28,1.82-4.68,3.16-9.56,4.8-14.32.93-2.69,2.37-5.25,3-8,1.86-8.21,3.44-16.48,5.12-24.73.76-3.76,1.5-7.52,2.33-11.73,1.5,2.18,3.17,4.04,4.18,6.21,3.53,7.53,6.98,15.11,10.18,22.8,2.82,6.77,5.43,13.63,7.79,20.57,1.89,5.54,3.26,11.26,4.87,16.9,2.16,7.56,4.91,15.01,6.37,22.7,2.35,12.38,4.38,24.88,5.58,37.42,1.12,11.68,1.46,23.48,1.23,35.21-.16,8.1-1.74,16.19-2.91,24.25-1.07,7.36-1.97,14.79-3.82,21.97-1.97,7.65-4.49,15.23-7.61,22.48-3.52,8.19-7.49,16.27-12.16,23.85-6.82,11.08-14.39,21.67-23.46,31.17-8.48,8.9-17.7,16.87-27.38,24.37-.94.73-1.86,1.54-2.89,2.11-1.12.62-2.36,1.01-4.24,1.77Z"/>
  <path d="m168.16,345.66c-5.35-1.73-9.8-3.39-14.37-4.61-11.36-3.05-21.02.83-29.62,8-3.87,3.23-7.34,6.92-11.77,11.14-1.06-.57-3.13-1.23-4.62-2.54-9.55-8.42-19.18-16.76-28.36-25.58-8.27-7.95-15.17-17.14-21.04-26.99-4.4-7.38-8.85-14.83-12.22-22.7-3.89-9.07-6.85-18.57-9.77-28.03-1.98-6.4-3.53-12.97-4.64-19.58-1.2-7.14-1.73-14.41-2.43-21.63-.34-3.46-.7-6.97-.54-10.43.67-14.22.97-28.49,2.53-42.61,1.16-10.6,3.76-21.08,6.21-31.5,2.37-10.1,5.01-20.16,8.19-30.03,2.79-8.63,6.48-16.97,9.81-25.43,1.86-4.71,3.69-9.43,5.72-14.07,1.99-4.57,4.22-9.03,6.34-13.54.44.02.87.05,1.31.07.54,1.46,1.3,2.89,1.57,4.4,1.44,8.2,2.43,16.49,4.2,24.61,1.53,7.04,3.66,13.98,5.96,20.82,2.43,7.24,5.25,14.37,8.16,21.44,1.38,3.35,3.2,6.55,5.11,9.64,5.37,8.66,10.35,17.63,16.5,25.7,6.48,8.5,13.69,16.56,21.4,23.97,7.92,7.61,16.78,14.24,25.3,21.21,2.39,1.96,5.03,3.62,7.43,5.33-3.71,8.14-7.2,15.54-10.45,23.05-1.65,3.81-2.7,7.88-4.26,11.73-1.74,4.29-3.91,8.41-5.62,12.71-1.79,4.49-3.1,9.17-4.91,13.65-2.27,5.61-4.47,11.31-7.36,16.6-3.45,6.31-1.75,8.28,1.42,13.03,4.95,7.42,10.2,14.63,15.3,21.95,3.81,5.46,7.55,10.97,11.35,16.43,2.1,3.01,4.35,5.92,6.34,8.99.81,1.25,1.1,2.83,1.82,4.79Z"/>
  <path d="m312.29,261.37c4.89-18.25,9.61-35.83,14.52-54.14-1.38-.54-2.78-1.37-4.29-1.64-5.75-1.04-11.52-1.99-17.3-2.8-7.97-1.11-15.96-2.08-23.95-3.07-8.38-1.04-16.77-2.02-25.15-3.05-10.25-1.26-20.5-2.49-30.74-3.86-4.33-.58-8.6-1.6-12.92-2.26-4.32-.66-8.66-1.25-13.01-1.61-2.51-.21-3.56-1.2-3.54-3.72.06-11.29-.11-22.58.13-33.86.11-5.07,5.37-11.63,11.94-11.09,6.71.55,13.37,1.86,20.03,2.93,9.81,1.58,19.61,3.21,29.4,4.86,9.59,1.62,19.2,3.22,28.76,4.98,8.3,1.53,16.55,3.34,24.84,4.94,4.38.84,8.82,1.41,13.21,2.24,3.89.73,7.74,1.68,11.62,2.47,4.95,1.01,9.9,1.99,14.86,2.94,6.43,1.23,12.87,2.4,19.3,3.63,3.11.6,6.24,1.13,9.29,1.95,3.81,1.03,6.73,4.9,6.73,8.86.02,33.06.11,66.13-.21,99.19-.03,2.98-2.21,6.48-4.39,8.8-4.19,4.46-9.07,8.28-13.73,12.28-.76.65-1.89.87-3.09,1.4-1.45-3.82-2.78-7.31-4.09-10.8-5.02-13.35-14.05-22.5-28.05-26-5.54-1.38-11.34-1.74-17.01-2.62-.99-.15-1.93-.58-3.15-.96Z"/>
  <path d="m186.45,374.79c3.84.01,4.3,1.52,3.59,3.76-1.98,6.25-4.05,12.46-5.98,18.73-1.72,5.6-3.26,11.25-4.93,16.86-2.65,8.95-5.39,17.88-8.01,26.85-2.2,7.52-4.27,15.08-6.43,22.62-1.15,4.01-1.81,8.29-3.73,11.9-1.62,3.05-4.69,5.33-7.18,7.89-4.01,4.12-8.04,8.21-12.11,12.25-3.45,3.42-7.04,6.69-10.45,10.15-3.43,3.47-6.72,7.09-10.07,10.64-5.61,5.94-11.23,11.88-16.83,17.83-3.33,3.54-6.62,7.11-10.39,11.17-1.87-.93-3.72-1.39-4.92-2.54-5.85-5.58-11.44-11.42-17.27-17.01-11.72-11.25-23.53-22.42-35.31-33.6-2.31-2.19-4.69-4.29-6.92-6.33-.68-5.05,2.06-8.66,4.15-12.4.46-.83,2.24-1.24,3.43-1.29,7.17-.28,14.36-.7,21.52-.48,8.07.24,15.56-2.1,22.95-4.63,6.7-2.3,13.27-5.18,19.53-8.49,4.6-2.43,8.94-5.61,12.8-9.12,7.71-7.02,15.19-14.32,22.44-21.82,11.54-11.93,22.82-24.11,34.22-36.18,5.46-5.78,10.95-11.52,15.92-16.76Z"/>
  <path d="m383.11,387.07c.99.75,2.07,1.4,2.94,2.27,15.75,15.71,31.43,31.49,47.24,47.14,7.07,7,14.16,14,21.64,20.55,7.7,6.74,16.82,11.13,26.4,14.75,8.2,3.1,16.7,3.46,25.22,4.03,7.93.53,15.87.82,23.94,1.22,1.84,4.54,3.57,8.78,5.19,12.79-8.96,8.65-17.32,16.79-25.75,24.86-5.82,5.56-11.77,10.99-17.61,16.54-5.91,5.62-11.8,11.27-17.59,17.01-1.87,1.85-3.25,1.67-5.01-.12-11.3-11.44-22.68-22.79-34-34.21-10.02-10.11-19.92-20.33-30.02-30.35-3.32-3.29-3.81-7.56-4.83-11.64-1.08-4.32-1.55-8.78-2.59-13.11-1.52-6.32-3.42-12.56-4.97-18.88-.99-4.05-1.58-8.19-2.49-12.26-1.62-7.27-3.42-14.5-4.97-21.78-.93-4.36-1.49-8.8-2.28-13.19-.3-1.7-.79-3.36-1.19-5.04.25-.19.49-.37.74-.56Z"/>
  <path d="m164.5,55.78c17.63,8.54,35.27,17.08,53.46,25.89-2.43,10.36-4.8,20.43-7.26,30.92-1.12.22-2.45.69-3.78.7-8.48.06-16.96,0-25.43.04-2.51.02-3.65-.96-4.25-3.51-1.12-4.8-2.79-9.48-4.09-14.24-1.22-4.49-2.23-9.03-3.39-13.54-1.43-5.56-2.95-11.09-4.36-16.65-.72-2.83-1.28-5.7-1.92-8.55.34-.35.68-.7,1.01-1.05Z"/>
  <path d="m386.68,113.18c-10.92.33-21.79.17-32.55.11-2.59-10.73-4.99-20.71-7.58-31.42,17.39-9.39,35.02-17.53,52.65-25.67.44.4.87.79,1.31,1.19-3.88,18.45-9.34,36.52-13.83,55.8Z"/>
  <path d="m281.01,46.27c.69-.06,1.42-.13,2.06-.19,8.14,17.45,16.18,34.69,24.58,52.68-9.07,5.86-16.78,13.91-25.83,19.85-8.22-6.55-15.75-12.55-23.27-18.55-1.55-1.24-1.74-2.66-.86-4.49,4.67-9.74,9.26-19.52,13.87-29.28,3.08-6.52,6.16-13.05,9.45-20.02Z"/>
</svg>