<?xml version="1.0" encoding="UTF-8"?>
<svg id="Calque_1" data-name="Calque 1" xmlns="http://www.w3.org/2000/svg" viewBox="0 0 540 554.4" fill="#000000">
  <path d="m37.58,354.77c3.81,0,7.2,0,10.59,0,14.7,0,29.41-.37,44.09.11,9.42.31,18.83,1.64,28.18,2.94,6.57.91,13.14,2.18,19.53,3.96,7.74,2.15,15.72,4.16,22.82,7.75,12.27,6.2,24.61,12.33,36.11,20.1,9.16,6.19,17.58,13.14,25.13,21,10.76,11.2,20.81,23.08,31.14,34.68,5.02,5.63,9.99,11.31,15.07,17.07,3.73-.5,5.26-3.62,7.26-5.86,3.56-3.99,6.72-8.34,10.04-12.56,2.41-3.06,4.68-6.23,7.21-9.18,2.9-3.4,6.01-6.62,9.05-9.9,5.73-6.18,11.29-12.53,17.29-18.44,3.16-3.11,7.04-5.51,10.66-8.14,5.54-4.03,10.93-8.31,16.76-11.87,8.11-4.96,16.42-9.65,24.93-13.87,6.37-3.16,13.1-5.68,19.85-7.98,5.9-2.01,12.03-3.33,18.06-4.94,8.76-2.33,17.71-3.03,26.73-3.83,21.56-1.9,43.13-.46,64.68-1,.29,0,.59.09,1.76.28.92,2.24,2.22,4.82,3.07,7.54,2.8,8.96,5.42,17.97,8.16,26.95,2.11,6.9,4.37,13.75,6.43,20.66,1.22,4.11,2.19,8.3,3.47,13.18-2.73.37-4.62.84-6.51.84-23.6.04-47.2-.16-70.79.11-7.53.08-15.12.93-22.55,2.19-9.48,1.61-18.87,3.86-28.23,6.12-3.63.87-7.1,2.42-10.59,3.79-5.22,2.05-10.47,4.05-15.57,6.35-9.41,4.26-18.04,9.85-26.7,15.47-11.41,7.4-20.86,16.93-30.51,26.25-2.29,2.21-3.78,5.23-5.64,7.88.21.31.42.62.62.93,3.16,0,6.31,0,9.47,0,10.3,0,20.6-.04,30.89.02,1.4,0,2.8.54,4.26.84v37.11c-.54.57-1.15,1.21-1.9,2.01-1.32,0-2.71,0-4.1,0-51.49,0-102.99,0-154.48.06-2.72,0-3.79-1.03-3.78-3.7.06-10.99.01-21.97.06-32.96,0-1.05.34-2.09.58-3.49h45.49c-.78-1.5-1.04-2.59-1.72-3.23-9.19-8.68-18.19-17.59-27.78-25.8-5.23-4.48-11.51-7.71-17.28-11.56-9.58-6.4-20.08-10.92-30.75-15.08-5.63-2.19-11.24-4.57-17.06-6.14-7.74-2.1-15.6-3.97-23.52-5.1-20.54-2.93-41.24-1.29-61.87-1.58-11.5-.16-23-.03-34.49-.03-.98,0-1.96,0-3.6,0,0-1.83-.35-3.45.05-4.84,3.92-13.43,7.99-26.82,11.97-40.23,1.44-4.85,2.64-9.77,4.15-14.59,1.06-3.38,2.46-6.66,3.83-10.32Z"/>
  <path d="m268.12,25.81c-5.44,5.11-10.2,9.6-14.97,14.08-7.66,7.18-14.27,15.19-19.52,24.32-6.81,11.84-7.97,24.55-5.36,37.59,1.9,9.52,12.31,15.43,22.59,13.94,5.1-.74,9.92-1.93,14.18-4.93,1.96-1.38,3.99-2.66,5.98-3.99-.33-.58-.66-1.16-.99-1.74.87.4,2.1.55,2.55,1.23,3.84,5.74,7.5,11.61,11.32,17.37.97,1.47,2.54,2.56,3.44,4.06,5.75,9.49,11.29,19.11,17.1,28.57,4.55,7.42,9.52,14.59,14.07,22.01,5.24,8.55,10.11,17.32,15.37,25.86,6.54,10.61,13.64,20.89,19.84,31.69,3.37,5.87,5.61,12.43,7.92,18.84,3.19,8.86,2.3,18.18,1.62,27.26-.41,5.41-2.33,10.85-4.37,15.97-4.42,11.12-11.97,20.26-19.61,29.32-5.57,6.61-10.61,13.67-16.02,20.42-6.08,7.59-12.39,15-18.44,22.61-4.13,5.19-7.89,10.67-11.99,15.89-6.14,7.83-12.39,15.57-18.69,23.27-.86,1.05-2.26,1.66-3.61,2.61-3.76-4.58-7.28-8.75-10.68-13.01-10.09-12.68-20.18-25.35-30.16-38.11-7.47-9.54-14.75-19.24-22.17-28.82-5.48-7.07-11.46-13.79-16.51-21.14-9.34-13.58-14.04-28.73-12.46-45.32.77-8.08,2.47-16.06,6.74-23.25,5.16-8.68,10.06-17.53,15.3-26.16,4.31-7.11,9-13.99,13.42-21.03,5.05-8.04,9.98-16.15,15.46-25.04-1.77.11-2.66-.07-3.33.24-6.81,3.15-13.59,6.36-20.35,9.6-3.86,1.85-7.65,3.84-11.53,5.63-1.1.51-2.42.53-3.98.85-3.35-6.97-7.1-13.46-9.64-20.4-3.54-9.64-7.02-19.45-8.97-29.5-2.26-11.71-1.99-23.64.9-35.48,2.99-12.2,8.84-22.75,17.13-31.93,4.98-5.52,10.74-10.33,16.06-15.55,6.87-6.75,15.43-10.77,23.94-14.79,7.5-3.55,15.18-6.75,22.93-9.72,4.05-1.55,8.42-2.27,12.66-3.31.63-.15,1.32-.02,2.84-.02Zm3.74,316.92c3.69-5.19,6.7-9.75,10.04-14.06,6.81-8.8,13.73-17.52,20.72-26.18,5.46-6.77,9.11-14.2,6.91-23.01-1.17-4.71-3.21-9.36-5.69-13.55-6.63-11.19-13.73-22.1-20.61-33.15-3.77-6.05-7.46-12.15-11.51-18.75-.9.66-1.92,1.06-2.37,1.8-6.27,10.18-12.46,20.42-18.68,30.63-5.04,8.27-10.35,16.38-15.06,24.82-4.09,7.32-3.95,15.15-1.26,23.05,1.74,5.12,5.16,9.07,8.45,13.11,3.65,4.47,7.73,8.61,11.26,13.16,4.91,6.33,9.46,12.95,14.27,19.36.79,1.06,2.14,1.69,3.54,2.75Z"/>
</svg>