<?xml version="1.0" encoding="UTF-8"?>
<svg id="Calque_1" data-name="Calque 1" xmlns="http://www.w3.org/2000/svg" viewBox="0 0 558 565.8" fill="#000000">
  <path d="m14.42,360.01c-.27-5.69,1.69-10.87,3.5-16.11.96-2.78,1.5-5.71,2.44-8.5,1.77-5.27,3.38-10.63,5.61-15.7,3.76-8.55,7.7-17.04,12.06-25.3,4.27-8.08,9.39-15.71,13.74-23.76,8.83-16.34,20.84-30.46,31.33-45.63,4.57-6.61,10.13-12.53,15.3-18.72,6.56-7.84,13.08-15.7,19.8-23.41,2.98-3.42,6.4-6.47,9.62-9.68.38.16.76.31,1.14.47-.26,1.73-.34,3.51-.81,5.18-2.16,7.65-1.39,14.98,3.4,21.32,3.97,5.26,9.62,7.79,16.31,8.82,7.88,1.21,14.87-1.1,22.06-3.48,4.79-1.59,9.8-2.53,14.62-4.06,6.81-2.16,13.55-4.51,20.27-6.92,3.81-1.37,7.49-3.06,11.27-4.51,1.33-.51,2.76-.76,3.94-1.08,15.91,18.74,31.48,37.1,47.41,55.88,1.2-.75,2.45-1.17,3.18-2.03,6.79-7.92,13.49-15.9,20.21-23.88,5.96-7.09,11.91-14.19,17.84-21.31,2.35-2.82,4.63-5.68,6.93-8.52,1.45.16,2.6.06,3.56.44,4.59,1.81,9.07,3.96,13.72,5.59,5.14,1.8,10.45,3.12,15.66,4.76,4.15,1.31,8.23,2.86,12.38,4.15,9.67,3.01,19.25,6.56,29.71,4.41,8.01-1.65,14.29-5.61,16.97-13.58,1.56-4.64,2.66-9.49.74-14.57-.88-2.33-.52-5.12-.77-8.25,4.12,3.84,7.87,6.81,10.98,10.34,6.84,7.77,13.43,15.76,19.97,23.79,5.71,7.01,11.35,14.08,16.74,21.33,6.29,8.46,12.58,16.94,18.33,25.77,7.45,11.45,14.43,23.23,21.49,34.93,2.87,4.76,5.74,9.57,8.07,14.61,3.98,8.57,8.02,17.17,11.14,26.07,2.95,8.4,4.78,17.19,7.01,25.83.31,1.18.04,2.52-.55,4.18-.95-1.06-1.86-2.16-2.87-3.16-10.36-10.26-21.48-19.62-33.81-27.41-6.87-4.34-13.92-8.49-21.23-12.01-7.7-3.71-15.78-6.64-23.75-9.77-7.29-2.86-14.59-5.74-22.02-8.22-5.42-1.81-11.05-2.96-16.57-4.47-2.33-.64-4.62-1.44-7.25-2.27-12.8,26.36-31.94,46.14-56.76,60.27-5.12,2.91-10.65,5.92-17.34,6.71.17-1.49.22-2.44.39-3.37,1.55-8.48,2.97-17,4.74-25.43,1.48-7.04,3.31-14.01,5.16-20.96.36-1.35,1.35-2.64,2.33-3.7,4-4.32,8.19-8.47,12.13-12.84,1.51-1.68,2.63-3.74,3.73-5.73.41-.75.26-1.81.36-2.77-13.44-1.28-26.49-2.53-39.81-3.8-.71,1.09-1.71,1.99-1.89,3.02-1.36,7.92-2.5,15.88-3.83,23.81-.96,5.68-2.28,11.31-3.13,17.01-1.48,9.82-2.65,19.7-4.1,29.53-.87,5.9-2.17,11.73-3.03,17.62-1.49,10.23-2.73,20.5-4.19,30.74-1.18,8.27-2.06,16.63-3.95,24.75-1.08,4.62.32,7.82,2.73,11.24,3.67,5.2,7.18,10.51,10.8,15.75,4.91,7.1,9.87,14.16,14.8,21.25,2.09,3.01,4.39,5.93,6.13,9.14,1.09,2,1.81,4.47,1.83,6.74.16,14.8.09,29.6.12,44.4,0,1.49.21,2.97.31,4.43-.98,2.08-2.54,2.04-4.29,1.28-4.91-2.14-9.78-4.35-14.71-6.43-7.05-2.96-14.16-5.79-21.22-8.75-3.2-1.34-6.28-2.98-9.52-4.21-1.38-.53-3.2-.87-4.51-.42-5.17,1.77-10.25,3.8-15.29,5.91-6.55,2.73-13.03,5.62-19.55,8.45-3.88,1.68-7.74,3.41-11.65,5.03-1.15.47-2.43.62-4.12,1.04-.19-1.62-.46-2.85-.46-4.07-.02-14.8.2-29.6-.12-44.4-.1-4.67,1.86-7.91,4.4-11.31,2.59-3.47,4.9-7.15,7.33-10.74,3.13-4.61,6.31-9.2,9.4-13.84,5-7.53,10.21-14.95,14.74-22.77,1.19-2.05.48-5.42.13-8.11-.76-5.71-1.96-11.36-2.78-17.06-1.18-8.17-2.07-16.38-3.28-24.54-2.06-13.97-4.26-27.92-6.42-41.87-1.16-7.47-2.32-14.94-3.55-22.4-1.78-10.79-3.59-21.57-5.48-32.34-.35-2.03-1.12-3.98-1.83-6.45-13.64,1.16-27.4,2.33-41.15,3.5-.16.33-.31.65-.47.98,1.91,2.59,3.62,5.36,5.78,7.72,3.82,4.19,7.99,8.06,11.86,12.21,1.16,1.25,2.27,2.87,2.63,4.49,2.64,11.92,5.05,23.88,7.59,35.82.76,3.6,1.71,7.16,2.5,10.75.25,1.12.25,2.28-.08,3.74-32.9-13.26-57.58-35.44-73.39-67.8-5.21,1.26-9.95,2.28-14.61,3.57-5.46,1.51-10.91,3.13-16.27,4.96-5.83,1.99-11.56,4.25-17.31,6.47-3.78,1.46-7.56,2.93-11.24,4.61-5.4,2.48-10.72,5.12-16.04,7.75-11.57,5.71-22.14,13.02-32.21,20.98-5.59,4.42-10.4,9.83-15.66,14.69-1.69,1.56-3.68,2.81-5.53,4.2,0,0,.03.03.03.03Z"/>
  <path d="m227.73,145.39c13.38-37.68,26.3-74.05,39.55-111.37,1.3,1.53,2.36,2.29,2.74,3.3,3.23,8.63,6.37,17.3,9.46,25.99,2.78,7.82,5.34,15.71,8.23,23.49,2.37,6.4,5.24,12.62,7.61,19.01,2.69,7.25,5.05,14.62,7.58,21.93,1.42,4.13,2.93,8.22,4.3,12.37.64,1.94,1.03,3.96,1.46,5.63-13.37,17.4-26.37,34.35-39.43,51.25-.32.41-1.28.33-2.23.54-13.22-17.56-26.44-35.11-39.26-52.14Z"/>
  <path d="m404.12,87.78c0,2.8.46,4.85-.08,6.61-2.65,8.74-5.66,17.38-8.35,26.1-2.64,8.55-5.05,17.17-7.6,25.74-.79,2.67-1.69,5.3-2.6,7.93-1.35,3.91-2.76,7.81-4.34,12.25h-36.39c-.52-.95-1.55-2.21-1.94-3.65-1.83-6.7-3.42-13.46-5.21-20.17-1.1-4.11-2.43-8.16-3.87-12.94,23.27-13.85,46.39-27.6,70.39-41.89Z"/>
  <path d="m202.13,129.12c-2.35,13.13-6.66,24.99-9.9,37.25h-37.53c-8.02-26.17-15.92-51.97-23.83-77.78.31-.3.62-.59.92-.89,23.31,13.72,46.61,27.44,70.33,41.41Z"/>
</svg>