<?xml version="1.0" encoding="UTF-8"?>
<svg xmlns="http://www.w3.org/2000/svg" viewBox="0 0 152.38 151.7" fill="#000000">
  <path d="m51.4,91.07c0-1.6,0-2.93,0-4.26,0-21.99.01-43.98-.01-65.98,0-1.17.4-1.86,1.33-2.57,5.84-4.48,11.62-9.03,17.41-13.57,1.77-1.38,3.51-2.8,5.28-4.19.22-.18.48-.31.78-.49.32.2.65.38.94.6,7.23,5.54,14.39,11.16,21.7,16.59,3.2,2.38,2.63,2.31,2.64,5.45.01,14.54,0,29.07.02,43.61.01,7.62.08,15.23.17,22.85.02,1.54-.54,2.54-1.84,3.39-3.47,2.28-6.84,4.72-10.28,7.05-4.33,2.93-8.7,5.82-13.24,8.86-8.33-5.73-16.68-11.44-24.9-17.34Z"/>
  <path d="m10.42,97.42v-32.96c-1.33-.88-2.75-1.81-4.16-2.75-1.76-1.18-3.53-2.36-5.26-3.58-.3-.21-.47-.6-.65-.83,10.68-9.28,21.22-18.45,31.97-27.79.06.64.12.95.12,1.26,0,22.62,0,45.24-.05,67.86,0,1.7.56,2.69,2.05,3.59,2.74,1.63,5.28,3.61,7.95,5.38,4.68,3.09,9.42,6.11,14.1,9.21,3.12,2.06,6.19,4.19,9.39,6.35v28.46c-21.95-14.66-43.84-29.29-65.88-44.02,3.56-3.48,6.97-6.81,10.42-10.19Z"/>
  <path d="m152.38,57.62c-3.52,2.34-6.97,4.62-10.4,6.9v32.55c3.42,3.53,6.76,6.99,10.25,10.58-.52.4-1.01.83-1.54,1.18-6.4,4.27-12.82,8.52-19.22,12.79-6.99,4.66-13.97,9.34-20.95,14.02-7.29,4.88-14.58,9.77-21.87,14.66-.64.43-1.28.87-2.08,1.4-.1-.48-.2-.74-.2-1,0-8.58.03-17.16,0-25.74,0-1.18.4-1.88,1.39-2.53,10.25-6.74,20.47-13.53,30.7-20.31.51-.34.97-.76,1.5-1.17V29.35c.73.55,1.26.91,1.73,1.32,4.12,3.63,8.22,7.27,12.34,10.91,2.9,2.56,5.79,5.12,8.72,7.65,3.05,2.63,6.14,5.22,9.22,7.83.09.08.14.19.4.56Z"/>
</svg>