<?xml version="1.0" encoding="UTF-8"?>
<svg id="Calque_1" data-name="Calque 1" xmlns="http://www.w3.org/2000/svg" viewBox="0 0 565.8 605.4" fill="#000000">
  <path d="m298.5,561.41h-30.65c-1.45-2.41-3.2-4.94-4.57-7.66-4.65-9.2-9.18-18.46-13.72-27.71-2.62-5.34-5.27-10.67-7.63-16.12-.57-1.32-.43-3.19-.03-4.65,2.07-7.57,4.25-15.11,6.53-22.61,1.44-4.73,3.18-9.38,4.69-14.09,1.42-4.43,2.7-8.92,4.09-13.36,1.51-4.81,3.26-9.55,4.59-14.4,2.51-9.17,5.81-18.01,5.7-27.93-.41-36.8-.21-73.6-.11-110.4.01-4.93-1.14-9.4-3.01-13.88-4.89-11.74-9.57-23.56-14.41-35.31-2.79-6.76-5.89-13.38-8.58-20.17-2.57-6.47-4.69-13.11-7.19-19.6-1.78-4.64-3.93-9.13-5.8-13.74-2.38-5.88-4.63-11.82-6.96-17.72-2.33-5.88-4.77-11.72-6.99-17.64-.45-1.21-.54-2.88-.07-4.05,2.54-6.24,5.33-12.37,7.98-18.55,2.07-4.83,4-9.72,6.12-14.53,2.68-6.08,5.54-12.08,8.21-18.16,2.72-6.18,5.33-12.41,7.94-18.64,1.53-3.66,2.78-7.45,4.58-10.97.63-1.24,2.52-2.59,3.85-2.6,19.58-.15,39.16-.07,58.74-.09,3.41,0,4.19,2.97,5.32,5,2.31,4.13,3.98,8.62,5.87,12.98,3.52,8.12,7.06,16.23,10.51,24.37,2.05,4.84,3.79,9.81,5.93,14.61,3.71,8.32,7.59,16.56,11.44,24.81,1.21,2.58,1.26,4.88.03,7.65-3.1,6.99-5.68,14.21-8.58,21.29-3.23,7.89-6.72,15.68-9.86,23.61-2.92,7.39-5.49,14.91-8.3,22.35-1.71,4.53-3.61,9-5.39,13.51-1.78,4.53-3.46,9.11-5.29,13.62-3.14,7.74-6.42,15.42-9.54,23.17-2.99,7.44-5.77,14.72-5.68,23.19.39,36.4.1,72.8.25,109.2.02,4.11.95,8.29,2,12.3,1.88,7.17,4.12,14.25,6.33,21.33,1.98,6.34,4.23,12.6,6.2,18.94,2.8,9.07,5.42,18.2,8.19,27.28.66,2.18,1.5,4.32,2.39,6.42,1.5,3.51,1.43,6.64-.45,10.22-5.9,11.3-11.35,22.83-17.05,34.24-2.44,4.87-5.07,9.65-7.63,14.48Zm-14.81-327.17c.68-1.99,1.05-3.2,1.5-4.37,2.99-7.76,6.11-15.47,8.98-23.28,2.79-7.61,5.29-15.33,7.97-22.98,1.97-5.61,4.35-11.1,5.91-16.82.67-2.46.19-5.51-.59-8.04-1.41-4.52-3.46-8.84-5.2-13.27-2.37-6.05-4.7-12.12-7.04-18.16h-24.34c-.94,2.19-1.82,4.07-2.58,5.99-2.91,7.38-5.89,14.74-8.6,22.19-.99,2.73-2.4,6.01-1.73,8.52,1.96,7.28,4.89,14.29,7.41,21.42,2.85,8.04,5.69,16.1,8.52,24.15,2.58,7.31,5.12,14.63,7.75,21.92.28.77,1,1.37,2.03,2.73Z" />
  <path d="m154.38,393.3c-3.79-11.01-3.91-21.87.7-32.1,4.64-10.28,13.14-16.69,24.43-19.53,1.58-3.11-.98-5.29-2.41-7.28-5.88-8.17-12.26-16.02-21.01-21.28-4.6-2.77-9.72-4.74-14.74-6.75-6.18-2.47-12.73-3.31-19.33-2.86-7.95.54-15.81,1.78-23.13,5.26-.94.45-1.98.68-2.88.99-10.9-9.31-19.8-19.89-28.3-31.88,14.46-5.96,28.26-11.63,42.05-17.31.02-.23.04-.46.05-.69-1.53-.21-3.07-.6-4.6-.61-15.18-.04-30.36-.06-45.55,0-2.48.01-4.04-.65-5.65-2.87-6.96-9.62-11.29-20.5-15.63-31.39-1.43-3.59-2.78-7.21-4.12-10.84-.3-.81-.37-1.7-.67-3.15,15.22-5.81,30.29-11.56,45.37-17.31-.03-.37-.06-.74-.09-1.11-1.46-.22-2.92-.62-4.39-.62-13.18-.05-26.37,0-39.55-.07-1.71,0-3.41-.56-5.52-.92-7.05-51.88,8.02-96.93,38.4-137.64.4,0,.81.01,1.21.02.34.8.93,1.59.98,2.4.49,7.56.53,15.17,1.4,22.68.81,6.99,2.06,13.98,3.86,20.78,2.5,9.46,5.41,18.84,8.67,28.07,2.21,6.24,5.16,12.25,8.09,18.21,5.4,11.01,12.58,20.86,19.73,30.81,10.7,14.89,24.03,27.07,38.05,38.48,8.43,6.86,17.9,12.49,27.07,18.39,3.68,2.36,7.88,3.88,11.75,5.97,2.04,1.1,3.77,2.76,5.81,3.86,2.69,1.45,5.66,2.42,8.28,3.97,1.07.63,1.97,2.17,2.22,3.43,1.11,5.56,2,11.16,2.87,16.76.94,6.09,1.68,12.22,2.66,18.3.84,5.2,1.96,10.36,2.84,15.56,1.63,9.58,3.14,19.19,4.76,28.77.98,5.78,2.14,11.54,3.08,17.33.83,5.09,1.35,10.24,2.27,15.32.6,3.3,1.64,6.52,2.52,9.77,2.34,8.64.16,16.43-4.41,23.8-2.94,4.75-5.77,9.58-10.61,12.72-7.83,5.08-16.3,7.71-25.71,6.66-13.14-1.47-22.68-8.29-29.14-19.68-.25-.43-.48-.87-.77-1.28-.29-.41-.63-.77-.95-1.15Z" />
  <path d="m497.86,53.85c3.67,4.89,7.7,9.55,10.93,14.71,9.62,15.35,17.57,31.58,21.96,49.21,6.23,25.06,7.83,50.42,2.84,76.48h-49.01c-.11.35-.21.7-.32,1.04,1.54.86,3.01,1.93,4.65,2.53,5.1,1.89,10.32,3.47,15.4,5.43,7.63,2.93,15.2,6.05,22.76,9.17.95.39,1.7,1.29,3.12,2.41-3.51,9.22-7.02,18.44-9.87,25.91-3.18,5.64-5.34,9.77-7.78,13.72-3.82,6.17-7.71,12.31-11.89,18.24-.74,1.05-3.01,1.4-4.57,1.42-12.48.11-24.97.05-37.45.05-1.14,0-2.28.11-3.48.55,9.57,6.81,21.43,8.16,31.93,14.09-.53,1.08-.84,2.32-1.6,3.14-4.89,5.23-9.89,10.37-14.83,15.56-.75.79-1.39,1.68-2.34,2.83-.98-.17-2.24-.11-3.24-.6-5.52-2.71-11.46-4.11-17.45-4.64-7.39-.66-14.79-1.14-22.23,1.01-7.1,2.05-13.64,5.01-19.64,9.16-7.86,5.44-14.1,12.53-19.42,20.44-1.26,1.87-2.4,3.81-3.74,5.95,3.27,1.5,6.07,2.97,8.99,4.1,10.23,3.98,16.1,12.11,19.08,21.96,2.23,7.37,1.91,15.16-.76,22.84-2.84,8.17-7.9,14.18-15.19,18.35-9.99,5.72-20.63,6.19-31.71,3.61-8.24-1.92-14.7-6.5-19.22-13.18-5.25-7.75-7.6-16.66-5.88-26.18,1.59-8.79,3.35-17.55,5.09-26.31,1.5-7.57,3.18-15.1,4.59-22.69.87-4.69,1.25-9.47,2.1-14.16.76-4.21,1.99-8.33,2.79-12.53,1.13-5.95,1.97-11.96,3.1-17.92,1.37-7.21,2.96-14.38,4.35-21.59.37-1.94.3-3.97.5-5.95.16-1.56.43-3.12.66-4.79,4.3-1.98,8.43-3.84,12.53-5.77,4.04-1.9,8.2-3.59,12.04-5.85,7.09-4.18,14.12-8.48,20.88-13.15,4.9-3.38,9.48-7.28,13.94-11.24,7.34-6.52,14.87-12.89,21.57-20.03,6.42-6.84,12.13-14.39,17.68-21.97,4.44-6.07,8.55-12.45,12.08-19.08,3.71-6.97,6.57-14.39,9.75-21.63,1.59-3.63,3.33-7.23,4.51-10.99,1.86-5.94,3.46-11.98,4.89-18.04,1.25-5.31,2.47-10.68,3.09-16.09,1-8.69,1.49-17.45,2.22-26.17.09-1.02.33-2.03.51-3.05.37-.1.73-.2,1.1-.29Z" />
</svg>