<?xml version="1.0" encoding="UTF-8"?>
<svg id="Calque_1" data-name="Calque 1" xmlns="http://www.w3.org/2000/svg" viewBox="0 0 66 66">
  <path d="m7.97,51.69c3.53-3.67,7.02-7.29,10.81-11.22-1.16-1.05-2.55-2.28-3.9-3.56-.76-.71-1.49-1.46-2.16-2.25-1.03-1.23-.98-2.72.03-3.71,1.01-1,2.66-1.02,3.85,0,.57.49,1.11,1.01,1.62,1.56.5.54.95,1.14,1.53,1.85,1.21-1.26,2.17-2.29,3.17-3.29,7.77-7.78,15.56-15.54,23.3-23.35,1.45-1.47,3.08-2.45,5.07-3,2.96-.82,5.89-1.77,8.83-2.67.08-.02.16-.04.24-.06,1.17-.29,2.37-.76,3.41.26,1.01,1,.55,2.18.23,3.29-.92,3.2-1.9,6.37-2.81,9.57-.54,1.9-1.64,3.42-3.02,4.8-8.51,8.51-17.01,17.03-25.51,25.55-.2.2-.39.43-.9.98.74.6,1.5,1.16,2.2,1.79.52.47,1.01,1,1.41,1.58.84,1.19.65,2.69-.41,3.61-.98.86-2.54.93-3.53,0-1.85-1.74-3.62-3.56-5.43-5.35-.29-.29-.59-.55-.83-.77-3.69,3.59-7.32,7.12-11.14,10.84.76.66,1.44,1.15,1.98,1.75,1.14,1.28,1.11,2.81.01,3.91-1.03,1.03-2.63,1.09-3.81-.06-3.29-3.19-6.53-6.42-9.73-9.7-1.18-1.2-1.3-2.47-.63-3.65.6-1.05,1.59-1.34,2.68-1.15.58.1,1.15.45,1.63.81.62.46,1.16,1.05,1.81,1.65Z"/>
</svg>