<?xml version="1.0" encoding="UTF-8"?>
<svg id="Calque_1" data-name="Calque 1" xmlns="http://www.w3.org/2000/svg" viewBox="0 0 543.6 576.6" fill="#000000">
  <path d="m13.7,112.41c5.72-2.26,11.25-4.39,16.73-6.61,5.8-2.35,11.51-4.95,17.37-7.15,10.96-4.12,22-7.99,32.99-12.04,3.45-1.27,6.79-2.84,10.23-4.15,5.81-2.22,11.68-4.28,17.48-6.52,5-1.94,9.92-4.09,14.9-6.07,7.46-2.96,14.96-5.82,22.41-8.79,6.96-2.77,13.83-5.75,20.84-8.4,7.24-2.74,14.57-5.25,21.9-7.74,5.06-1.72,10.13-3.51,15.31-4.77,7.32-1.78,14.73-3.25,22.14-4.6,16.35-2.98,32.87-3.3,49.44-3.24,11.23.04,22.22,1.68,33.23,3.4,7.56,1.18,15.13,2.38,22.57,4.14,6.24,1.48,12.32,3.66,18.39,5.76,7.97,2.76,15.91,5.65,23.79,8.65,6.6,2.52,13.08,5.31,19.65,7.92,3.39,1.35,6.86,2.5,10.26,3.84,7.52,2.96,14.99,6.04,22.53,8.95,10.37,3.99,20.84,7.76,31.19,11.82,11.34,4.45,22.58,9.16,33.91,13.65,3.95,1.57,8.06,2.72,12.02,4.25,5.18,1.99,10.3,4.12,15.42,6.28,1.06.45,1.97,1.27,2.94,1.91-.42,4.28-.69,8.35-1.24,12.37-1.22,8.97-2.66,17.9-3.87,26.87-1.73,12.82-3.28,25.66-5.03,38.47-1.11,8.18-2.49,16.33-3.65,24.51-.8,5.72-1.41,11.46-2.12,17.19-.94,7.6-1.91,15.2-2.86,22.8-1.36,10.85-2.62,21.71-4.1,32.54-.79,5.79-2.04,11.52-2.89,17.3-1.08,7.38-1.94,14.78-2.93,22.17-1.46,10.84-2.98,21.68-4.42,32.52-.31,2.37-.5,4.77-.51,7.15-.04,7.07-4.01,11.64-9.16,15.85-8.25,6.73-16.17,13.87-24.3,20.77-6.81,5.78-13.74,11.41-20.55,17.18-6.15,5.21-12.2,10.55-18.32,15.8-5.44,4.67-10.92,9.28-16.37,13.93-5.14,4.38-10.27,8.77-15.41,13.15-9.45,8.07-18.9,16.14-28.35,24.19-4.99,4.25-10.05,8.42-14.99,12.74-9.48,8.29-18.48,17.19-28.44,24.87-14.86,11.46-31.67,17.95-50.88,15.74-7.81-.9-15.22-3.1-22.45-6.55-5.43-2.59-10.64-5.37-15.34-9.01-3.77-2.92-7.12-6.37-10.72-9.52-5.99-5.24-12-10.47-18.06-15.64-11.64-9.92-23.37-19.73-34.96-29.69-7.46-6.41-14.67-13.12-22.16-19.51-8.98-7.66-18.18-15.06-27.18-22.7-6.82-5.78-13.44-11.81-20.23-17.63-6.26-5.37-12.64-10.58-18.92-15.91-5.23-4.44-10.39-8.98-15.61-13.43-1.2-1.02-2.59-1.82-3.8-2.82-2.36-1.95-3.25-4.45-3.55-7.57-.67-6.92-1.91-13.78-2.82-20.68-1.07-8.07-2.02-16.16-3.06-24.23-1.03-7.99-2.11-15.97-3.16-23.95-1.81-13.89-3.52-27.8-5.44-41.68-1.55-11.14-3.44-22.22-5.01-33.36-1.07-7.59-1.81-15.22-2.73-22.82-1-8.3-1.96-16.6-3.09-24.88-.78-5.71-1.93-11.37-2.72-17.08-1.1-7.88-1.97-15.79-3.05-23.68-.86-6.31-1.94-12.58-2.8-18.89-.32-2.34-.27-4.74-.4-7.36Zm320.05,267.49h-39.15v117.45c1.76-1.02,3.08-1.53,4.1-2.4,9.72-8.39,19.34-16.89,29.1-25.23,4.28-3.66,8.85-6.97,13.21-10.53,2.24-1.82,4.27-3.9,6.48-5.76,12.24-10.33,24.57-20.56,36.76-30.94,10.82-9.22,21.45-18.65,32.26-27.88,6.26-5.34,12.75-10.42,19.08-15.67,6.13-5.08,12.2-10.23,18.3-15.34,2.97-2.49,4.85-5.44,4.69-9.54-.09-2.28.1-4.59.44-6.85.97-6.49,2.16-12.95,3.1-19.45,1.55-10.73,2.92-21.49,4.48-32.23.91-6.29,2.85-12.55,2.9-18.84.08-10.37,2.66-20.34,3.74-30.53,1.25-11.77,3.28-23.45,4.87-35.18,1.09-7.98,1.99-15.99,3.02-23.98.82-6.41,1.66-12.82,2.56-19.23,1.08-7.68,2.29-15.34,3.32-23.03.44-3.25.59-6.55.83-9.83.13-1.81-.56-3.02-2.45-3.55-3.63-1.02-7.29-1.99-10.81-3.31-9.17-3.44-18.27-7.08-27.41-10.61-5.91-2.28-11.86-4.47-17.76-6.78-4.82-1.88-9.55-3.97-14.39-5.8-7.22-2.73-14.53-5.25-21.75-7.99-7.38-2.8-14.67-5.87-22.06-8.65-8.19-3.08-16.45-5.94-24.67-8.93-8.54-3.1-16.98-6.53-25.64-9.22-5.33-1.65-10.98-2.31-16.52-3.21-8.4-1.37-16.8-3.08-25.27-3.68-8.94-.63-17.97-.13-26.96-.08-.98,0-1.96.2-2.92.41-2.39.53-4.74,1.26-7.15,1.64-2.25.35-4.61.08-6.83.55-7.27,1.52-14.53,3.1-21.71,4.96-6.91,1.79-13.83,3.66-20.55,6.04-7.25,2.56-14.22,5.87-21.4,8.62-12.17,4.66-24.41,9.14-36.62,13.67-5.63,2.09-11.33,4.01-16.91,6.23-7.65,3.03-15.17,6.42-22.85,9.38-8.06,3.1-16.26,5.8-24.37,8.79-6.78,2.5-13.49,5.18-20.25,7.73-3.32,1.25-4.05,2.59-3.45,6.17.94,5.59,1.91,11.17,2.64,16.79,1.46,11.14,2.67,22.32,4.16,33.46.76,5.69,2.05,11.31,2.87,16.99,1.03,7.18,1.76,14.41,2.73,21.6,1,7.39,2.22,14.75,3.22,22.14,1.37,10.15,2.63,20.32,3.9,30.49,1,8,1.94,16,2.94,24,.92,7.41,1.82,14.82,2.83,22.21.79,5.72,1.82,11.4,2.6,17.11.71,5.23,1.13,10.49,1.87,15.71.18,1.28.86,2.76,1.81,3.6,5.89,5.21,11.88,10.3,17.9,15.36,6.01,5.06,12.13,9.98,18.13,15.06,7.75,6.56,15.44,13.19,23.14,19.81,1.81,1.56,3.55,3.22,5.38,4.74,7.03,5.84,14.17,11.57,21.13,17.49,9.18,7.8,18.22,15.76,27.34,23.63,11.69,10.09,23.37,20.18,35.11,30.2,4.06,3.46,8.29,6.72,13.26,10.74.39-2.48.85-4.03.85-5.59.02-36.3,0-72.6-.03-108.9,0-3.58-.48-4.07-4.23-4.08-10.39-.02-20.78,0-31.16-.04-1.16,0-2.31-.16-3.6-.25-.16-1.04-.37-1.81-.38-2.57-.03-14.2-.05-28.4,0-42.6,0-1.07.58-2.14.86-3.12,1-.08,1.49-.15,1.98-.15,22.26-.15,44.52-.34,66.78-.43,19.28-.08,38.56-.03,57.83-.04,3.89,0,4.79.84,4.79,4.73.02,13.3,0,26.6,0,39.9,0,1.27,0,2.55,0,4.62Z"/>
  <path d="m329.64,161.93c1.43-4.59.57-9.19.72-13.68.15-4.47.03-8.95.03-13.55,3.73-.78,5.86,1.77,8.2,3.28,6.67,4.32,13.13,8.96,19.69,13.45,3.03,2.08,6.08,4.13,9.17,6.12,8.06,5.21,16.16,10.35,24.2,15.58,4.41,2.86,8.73,5.85,13.11,8.76,4.78,3.17,9.88,5.96,14.3,9.57,4.97,4.06,8.68,10.54,6.09,18.15-2.67,7.84-4.19,16.07-6.5,24.05-1.93,6.67-4.39,13.18-6.36,19.84-1.58,5.33-2.75,10.77-4.17,16.15-.66,2.5-1.54,4.94-2.22,7.44-.55,2.01-.72,4.14-1.44,6.07-1.95,5.26-1.65,11.65-6.69,15.39-2.3,1.7-5.17,2.95-7.97,3.6-8.5,1.98-17.1,3.54-25.65,5.33-10.77,2.26-21.52,4.58-32.28,6.86-.37.08-.78-.02-1.69-.07-1.43-8.57-.13-17.25-.82-26.46-1.17-.33-2.51-1.03-3.85-1.03-38.75-.04-77.5-.03-116.25.02-1.66,0-3.32.43-5.47.72v27.46c-3.17-.55-5.71-.94-8.23-1.43-7.11-1.39-14.24-2.68-21.3-4.27-10.7-2.4-21.37-4.93-32-7.59-6.19-1.55-9.61-5.84-11-12.01-1.51-6.67-3.35-13.26-4.83-19.93-2.09-9.42-3.91-18.9-5.99-28.32-1.52-6.88-3.3-13.7-4.92-20.55-.94-3.96-1.78-7.93-2.68-11.9-1.35-5.98-2.43-12.04-4.15-17.91-2.09-7.12,1.02-14.83,7.75-18.05,6.53-3.12,13.03-6.31,19.56-9.45,5.5-2.64,10.95-5.39,16.54-7.83,7.55-3.29,15.26-6.22,22.81-9.52,8.64-3.76,17.17-7.77,25.77-11.6.84-.38,1.92-.24,3.15-.37v25.9c.62.48,1.39,1.09,2.22,1.73h123.15Z"/>
  <path d="m305.07,127.66h-75.41c.68-1.71.91-3.28,1.78-4.3,7.62-8.93,15.31-17.8,23.09-26.59,3.68-4.17,7.59-8.14,11.41-12.17.46-.48,1.08-.81,2.22-1.64,12.23,13.97,24.4,27.86,36.51,41.82.45.52.25,1.62.4,2.88Z"/>
</svg>